<svg xmlns="http://www.w3.org/2000/svg" viewBox="0 0 128 128"><path class="path" d="M80.693 32.97h8v74.485h-8zM60 32.97h8v74.485h-8zm-20.693 0h8v74.485h-8zM26.62 20.416V120h74.765l-.004-99.583H80.413v.136h-8v-.136H55.584v.136h-8v-.136zM71.387 7.992L56.552 8c-.232.1-.968 1.04-.968 2.624v1.788h16.828v-1.788c0-1.584-.732-2.524-1.024-2.632zM56.552 0h14.896c5.028 0 8.964 4.668 8.964 10.624v1.788h28.97v.004h4.276v8h-4.277V120c0 4.416-3.587 8-8 8H26.62c-4.413 0-8-3.584-8-8V20.417H14.34v-8h4.277v-.005h28.963v-1.788C47.583 4.668 51.523 0 56.553 0z"/></svg>