<svg xmlns="http://www.w3.org/2000/svg" viewBox="0 0 128 128"><path class="path" d="M76.858 46.236v16.548s-.316 10.868-12.328 9.924l-14.032.068v45.8c0 1.06.832 1.892 1.872 1.892h52.732c1.036 0 1.868-.836 1.868-1.892h.012V48.108c0-1.032-.832-1.872-1.872-1.872zM54.554 9.132v20.08s-.368 13.184-14.928 12.048l-17.032.072v55.56c0 1.256 1.032 2.28 2.312 2.28h18.048V70.8l23.472-24.88h.064l6.88-7.224h17.736V11.4c0-1.252-1.016-2.268-2.28-2.268zM50.366 0h38.468c6.312 0 11.432 5.116 11.432 11.412v27.296h4.828l.012-.008c5.188 0 9.412 4.212 9.412 9.412v70.464c0 5.208-4.224 9.424-9.412 9.424H52.374c-5.2 0-9.416-4.224-9.416-9.424v-10.264H24.91c-6.32 0-11.428-5.12-11.428-11.424v-57.96L41.934 8.776h.112z"/></svg>